<svg xmlns="http://www.w3.org/2000/svg" viewBox="0 0 360 360" width="360" height="360" xmlns:c2pa="http://c2pa.org/manifest"><metadata><c2pa:manifest>AAAWgmp1bWIAAAAeanVtZGMycGEAEQAQgAAAqgA4m3EDYzJwYQAAABZcanVtYgAAAEdqdW1kYzJtYQARABCAAACqADibcQN1cm46YzJwYTphMzgwZWY5OS1lMzE4LTQ2ZjQtOTkyOC1hNjc5NGNkMzE3YjMAAAADl2p1bWIAAAApanVtZGMyYXMAEQAQgAAAqgA4m3EDYzJwYS5hc3NlcnRpb25zAAAAALxqdW1iAAAARGp1bWRjYm9yABEAEIAAAKoAOJtxE2MycGEuaW5ncmVkaWVudC52MwAAAAAYYzJzaMnVSF4zqcwm7rlEziYWwfsAAABwY2JvcqNpZGM6Zm9ybWF0bWltYWdlL3N2Zyt4bWxqaW5zdGFuY2VJRHgseG1wOmlpZDoyZjlmMjQ0ZC00MWVkLTQ1MmUtYjBiZC0yYTk5MGY1OTQwMTRscmVsYXRpb25zaGlwaHBhcmVudE9mAAAB4mp1bWIAAABBanVtZGNib3IAEQAQgAAAqgA4m3ETYzJwYS5hY3Rpb25zLnYyAAAAABhjMnNolsuqBdW5uQeAWGkNeoqA0AAAAZljYm9yomdhY3Rpb25zgqJmYWN0aW9ua2MycGEub3BlbmVkanBhcmFtZXRlcnOha2luZ3JlZGllbnRzgaJjdXJseC1zZWxmI2p1bWJmPWMycGEuYXNzZXJ0aW9ucy9jMnBhLmluZ3JlZGllbnQudjNkaGFzaFggbOfZzqdc7TZFmVA5se+FSLdFUHMzUN2PFKTVKDJipbSkZmFjdGlvbngdY29tLmFudGhyb3BpYy5jbGF1ZGUucHJvdmlkZWRqcGFyYW1ldGVyc6F4H2NvbS5hbnRocm9waWMub3JpZ2luLWNvbmZpZGVuY2VndW5rbm93bmtkZXNjcmlwdGlvbnhmQ2xhdWRlIHByb3ZpZGVkIHRoaXMgZmlsZSBhdCB0aGUgcmVxdWVzdCBvZiBhIHVzZXIgYW5kIG1heSBoYXZlIGNyZWF0ZWQgb3IgbW9kaWZpZWQgdGhlIGZpbGUgY29udGVudHMubXNvZnR3YXJlQWdlbnShZG5hbWVmQ2xhdWRlcmFsbEFjdGlvbnNJbmNsdWRlZPUAAADIanVtYgAAAEBqdW1kY2JvcgARABCAAACqADibcRNjMnBhLmhhc2guZGF0YQAAAAAYYzJzaFDLNslLC5qtNaJdtddoqAEAAACAY2JvcqVjYWxnZnNoYTI1NmNwYWRNAAAAAAAAAAAAAAAAAGRoYXNoWCDb/ZZinwHmid8Vu7rUteNzKtwJVtiOwdUkTT6grxm3TmRuYW1lbmp1bWJmIG1hbmlmZXN0amV4Y2x1c2lvbnOBomVzdGFydBiWZmxlbmd0aBkeBAAAAj5qdW1iAAAAJ2p1bWRjMmNsABEAEIAAAKoAOJtxA2MycGEuY2xhaW0udjIAAAACD2Nib3KlY2FsZ2ZzaGEyNTZpc2lnbmF0dXJleE1zZWxmI2p1bWJmPS9jMnBhL3VybjpjMnBhOmEzODBlZjk5LWUzMTgtNDZmNC05OTI4LWE2Nzk0Y2QzMTdiMy9jMnBhLnNpZ25hdHVyZWppbnN0YW5jZUlEeCx4bXA6aWlkOmNiNGExYTY4LWRkMTEtNGZmNS04Yjg0LTZkNGUxMmI4NjY4MnJjcmVhdGVkX2Fzc2VydGlvbnODomN1cmx4LXNlbGYjanVtYmY9YzJwYS5hc3NlcnRpb25zL2MycGEuaW5ncmVkaWVudC52M2RoYXNoWCBs59nOp1ztNkWZUDmx74VIt0VQczNQ3Y8UpNUoMmKltKJjdXJseCpzZWxmI2p1bWJmPWMycGEuYXNzZXJ0aW9ucy9jMnBhLmFjdGlvbnMudjJkaGFzaFggC5zdkCX7wsEwOgrN+CgnClHlBrECgaoDXo9pptIQefmiY3VybHgpc2VsZiNqdW1iZj1jMnBhLmFzc2VydGlvbnMvYzJwYS5oYXNoLmRhdGFkaGFzaFgg3JBnTlusvTBTEndqbwUixMWhi7JcnmuvwrT5MI237C90Y2xhaW1fZ2VuZXJhdG9yX2luZm+jZG5hbWVvQW50aHJvcGljIEZpbGVzZ3ZlcnNpb25lMS4wLjBrc3BlY1ZlcnNpb25lMi40LjAAABA4anVtYgAAAChqdW1kYzJjcwARABCAAACqADibcQNjMnBhLnNpZ25hdHVyZQAAABAIY2JvctKEWQISogEmGCFZAgowggIGMIIBjaADAgECAhRA5aAK7sI50L64g/oGQgU9Z1UTADAKBggqhkjOPQQDAzBJMRcwFQYDVQQKEw5BbnRocm9waWMsIFBCQzEuMCwGA1UEAxMlQW50aHJvcGljIENvbnRlbnQgQ3JlZGVudGlhbHMgUm9vdCBDQTAeFw0yNjA4MDcxODQzNTZaFw0yODA4MDYxOTQzNTZaMEQxFzAVBgNVBAoTDkFudGhyb3BpYywgUEJDMSkwJwYDVQQDEyBBbnRocm9waWMgQ2xhdWRlIENvbnRlbnQgU2lnbmluZzBZMBMGByqGSM49AgEGCCqGSM49AwEHA0IABJh6CmvLUBgFFNU0vUKlOVtE6djd17L5SuwX0LemFisBM3dkd/3cyjxFA3Qo5S46fX0/ihY0VZ7mfb9KF703t5OjWDBWMA4GA1UdDwEB/wQEAwIHgDAVBgNVHSUEDjAMBgorBgEEAYPoXgIBMAwGA1UdEwEB/wQCMAAwHwYDVR0jBBgwFoAUzlHiBIFOZFsj+OPEz5o+nMHXXMIwCgYIKoZIzj0EAwMDZwAwZAIwMXMdFJ4BetLLVY7ORuE9noqbbAZOZn/aArXyTwFAZfKrPzxF2vPoJNf1+UCdg1XGAjBwX1zd9WGqYkqmL5SFqw1QySjr1zJfpJM9+1rdDwSPLMOPOjKuiXjoU/pUUeG9RwmhY3BhZFkNngAAAAAAAAAAAAAAAAAAAAAAAAAAAAAAAAAAAAAAAAAAAAAAAAAAAAAAAAAAAAAAAAAAAAAAAAAAAAAAAAAAAAAAAAAAAAAAAAAAAAAAAAAAAAAAAAAAAAAAAAAAAAAAAAAAAAAAAAAAAAAAAAAAAAAAAAAAAAAAAAAAAAAAAAAAAAAAAAAAAAAAAAAAAAAAAAAAAAAAAAAAAAAAAAAAAAAAAAAAAAAAAAAAAAAAAAAAAAAAAAAAAAAAAAAAAAAAAAAAAAAAAAAAAAAAAAAAAAAAAAAAAAAAAAAAAAAAAAAAAAAAAAAAAAAAAAAAAAAAAAAAAAAAAAAAAAAAAAAAAAAAAAAAAAAAAAAAAAAAAAAAAAAAAAAAAAAAAAAAAAAAAAAAAAAAAAAAAAAAAAAAAAAAAAAAAAAAAAAAAAAAAAAAAAAAAAAAAAAAAAAAAAAAAAAAAAAAAAAAAAAAAAAAAAAAAAAAAAAAAAAAAAAAAAAAAAAAAAAAAAAAAAAAAAAAAAAAAAAAAAAAAAAAAAAAAAAAAAAAAAAAAAAAAAAAAAAAAAAAAAAAAAAAAAAAAAAAAAAAAAAAAAAAAAAAAAAAAAAAAAAAAAAAAAAAAAAAAAAAAAAAAAAAAAAAAAAAAAAAAAAAAAAAAAAAAAAAAAAAAAAAAAAAAAAAAAAAAAAAAAAAAAAAAAAAAAAAAAAAAAAAAAAAAAAAAAAAAAAAAAAAAAAAAAAAAAAAAAAAAAAAAAAAAAAAAAAAAAAAAAAAAAAAAAAAAAAAAAAAAAAAAAAAAAAAAAAAAAAAAAAAAAAAAAAAAAAAAAAAAAAAAAAAAAAAAAAAAAAAAAAAAAAAAAAAAAAAAAAAAAAAAAAAAAAAAAAAAAAAAAAAAAAAAAAAAAAAAAAAAAAAAAAAAAAAAAAAAAAAAAAAAAAAAAAAAAAAAAAAAAAAAAAAAAAAAAAAAAAAAAAAAAAAAAAAAAAAAAAAAAAAAAAAAAAAAAAAAAAAAAAAAAAAAAAAAAAAAAAAAAAAAAAAAAAAAAAAAAAAAAAAAAAAAAAAAAAAAAAAAAAAAAAAAAAAAAAAAAAAAAAAAAAAAAAAAAAAAAAAAAAAAAAAAAAAAAAAAAAAAAAAAAAAAAAAAAAAAAAAAAAAAAAAAAAAAAAAAAAAAAAAAAAAAAAAAAAAAAAAAAAAAAAAAAAAAAAAAAAAAAAAAAAAAAAAAAAAAAAAAAAAAAAAAAAAAAAAAAAAAAAAAAAAAAAAAAAAAAAAAAAAAAAAAAAAAAAAAAAAAAAAAAAAAAAAAAAAAAAAAAAAAAAAAAAAAAAAAAAAAAAAAAAAAAAAAAAAAAAAAAAAAAAAAAAAAAAAAAAAAAAAAAAAAAAAAAAAAAAAAAAAAAAAAAAAAAAAAAAAAAAAAAAAAAAAAAAAAAAAAAAAAAAAAAAAAAAAAAAAAAAAAAAAAAAAAAAAAAAAAAAAAAAAAAAAAAAAAAAAAAAAAAAAAAAAAAAAAAAAAAAAAAAAAAAAAAAAAAAAAAAAAAAAAAAAAAAAAAAAAAAAAAAAAAAAAAAAAAAAAAAAAAAAAAAAAAAAAAAAAAAAAAAAAAAAAAAAAAAAAAAAAAAAAAAAAAAAAAAAAAAAAAAAAAAAAAAAAAAAAAAAAAAAAAAAAAAAAAAAAAAAAAAAAAAAAAAAAAAAAAAAAAAAAAAAAAAAAAAAAAAAAAAAAAAAAAAAAAAAAAAAAAAAAAAAAAAAAAAAAAAAAAAAAAAAAAAAAAAAAAAAAAAAAAAAAAAAAAAAAAAAAAAAAAAAAAAAAAAAAAAAAAAAAAAAAAAAAAAAAAAAAAAAAAAAAAAAAAAAAAAAAAAAAAAAAAAAAAAAAAAAAAAAAAAAAAAAAAAAAAAAAAAAAAAAAAAAAAAAAAAAAAAAAAAAAAAAAAAAAAAAAAAAAAAAAAAAAAAAAAAAAAAAAAAAAAAAAAAAAAAAAAAAAAAAAAAAAAAAAAAAAAAAAAAAAAAAAAAAAAAAAAAAAAAAAAAAAAAAAAAAAAAAAAAAAAAAAAAAAAAAAAAAAAAAAAAAAAAAAAAAAAAAAAAAAAAAAAAAAAAAAAAAAAAAAAAAAAAAAAAAAAAAAAAAAAAAAAAAAAAAAAAAAAAAAAAAAAAAAAAAAAAAAAAAAAAAAAAAAAAAAAAAAAAAAAAAAAAAAAAAAAAAAAAAAAAAAAAAAAAAAAAAAAAAAAAAAAAAAAAAAAAAAAAAAAAAAAAAAAAAAAAAAAAAAAAAAAAAAAAAAAAAAAAAAAAAAAAAAAAAAAAAAAAAAAAAAAAAAAAAAAAAAAAAAAAAAAAAAAAAAAAAAAAAAAAAAAAAAAAAAAAAAAAAAAAAAAAAAAAAAAAAAAAAAAAAAAAAAAAAAAAAAAAAAAAAAAAAAAAAAAAAAAAAAAAAAAAAAAAAAAAAAAAAAAAAAAAAAAAAAAAAAAAAAAAAAAAAAAAAAAAAAAAAAAAAAAAAAAAAAAAAAAAAAAAAAAAAAAAAAAAAAAAAAAAAAAAAAAAAAAAAAAAAAAAAAAAAAAAAAAAAAAAAAAAAAAAAAAAAAAAAAAAAAAAAAAAAAAAAAAAAAAAAAAAAAAAAAAAAAAAAAAAAAAAAAAAAAAAAAAAAAAAAAAAAAAAAAAAAAAAAAAAAAAAAAAAAAAAAAAAAAAAAAAAAAAAAAAAAAAAAAAAAAAAAAAAAAAAAAAAAAAAAAAAAAAAAAAAAAAAAAAAAAAAAAAAAAAAAAAAAAAAAAAAAAAAAAAAAAAAAAAAAAAAAAAAAAAAAAAAAAAAAAAAAAAAAAAAAAAAAAAAAAAAAAAAAAAAAAAAAAAAAAAAAAAAAAAAAAAAAAAAAAAAAAAAAAAAAAAAAAAAAAAAAAAAAAAAAAAAAAAAAAAAAAAAAAAAAAAAAAAAAAAAAAAAAAAAAAAAAAAAAAAAAAAAAAAAAAAAAAAAAAAAAAAAAAAAAAAAAAAAAAAAAAAAAAAAAAAAAAAAAAAAAAAAAAAAAAAAAAAAAAAAAAAAAAAAAAAAAAAAAAAAAAAAAAAAAAAAAAAAAAAAAAAAAAAAAAAAAAAAAAAAAAAAAAAAAAAAAAAAAAAAAAAAAAAAAAAAAAAAAAAAAAAAAAAAAAAAAAAAAAAAAAAAAAAAAAAAAAAAAAAAAAAAAAAAAAAAAAAAAAAAAAAAAAAAAAAAAAAAAAAAAAAAAAAAAAAAAAAAAAAAAAAAAAAAAAAAAAAAAAAAAAAAAAAAAAAAAAAAAAAAAAAAAAAAAAAAAAAAAAAAAAAAAAAAAAAAAAAAAAAAAAAAAAAAAAAAAAAAAAAAAAAAAAAAAAAAAAAAAAAAAAAAAAAAAAAAAAAAAAAAAAAAAAAAAAAAAAAAAAAAAAAAAAAAAAAAAAAAAAAAAAAAAAAAAAAAAAAAAAAAAAAAAAAAAAAAAAAAAAAAAAAAAAAAAAAAAAAAAAAAAAAAAAAAAAAAAAAAAAAAAAAAAAAAAAAAAAAAAAAAAAAAAAAAAAAAAAAAAAAAAAAAAAAAAAAAAAAAAAAAAAAAAAAAAAAAAAAAAAAAAAAAAAAAAAAAAAAAAAAAAAAAAAAAAAAAAAAAAAAAAAAAAAAAAAAAAAAAAAAAAAAAAAAAAAAAAAAAAAAAAAAAAAAAAAAAAAAAAAAAAAAAAAAAAAAAAAAAAAAAAAAAAAAAAAAAAAAAAAAAAAAAAAAAAAAAAAAAAAAAAAAAAAAAAAAAAAAAAAAAAAAAAAAAAAAAAAAAAAAAAAAAAAAAAAAAAAAAAAAAAAAAAAAAAAAAAAAAAAAAAAAAAAAAAAAAAAAAAAAAAAAAAAAAAAAAAAAAAAAAAAAAAAAAAAAAAAAAAAAAAAAAAAAAAAAAAAAAAAAAAAAAAAAAAAAAAAAAAAAAAAAAAAAAAAAAAAAAAAAAAAAAAAAAAAAAAAAAAAAAAAAAAAAAAAAAAAAAAAAAAAAAAAAAAAAAAAAAAAAAAAAAAAAAAAAAAAAAAAAAAAAAAAAAAAAAAAAAAAAAAAAAAAAAAAAAAAAAAAAAAAAAAAAAAAAAAAAAAAAAAAAAAAAAAAAAAAAAAAAAAAAAAAAAAAAAAAAAAAAAAAAAAAAAAAAAAAAAAAAAAAAAAAAAAAAAAAAAAAAAAAAAAAAAAAAAAAAAAAAAAAAAAAAAAAAAAAAAAAAAAAAAAAAAAAAAAAAAAAAAAAAAAAAAAAAAAAAAAAAAAAAAAAAAAAAAAAAAAAAAAAAAAAAAAAAAAAAAAAAAAAAAAAAAAAAAAAAAAAAAAAAAAAAAAAAAAAAAAAAAAAAAAAAAAAAAAAAAAAAAAAAAAAAAAAAAAAAAAAAAAAAAAAAAAAAAAAAAAAAAAAAAAAAAAAAAAAAAAAAAAAAAAAAAAAAAAAAAAAAAAAAAAAAAAAAAAAAAAAAAAAAAAAAAAAAAAAAAAAAAAAAAAAAAAAAAAAAAAAAAAAAAAAAAAAAAAAAAAAAAAAAAAAAAAAAAAAAAAAAAAAAAAAAAAAAAAAAAAAAAAAAAAAAAAAAAAAAAAAAAAAAAAAAAAAAAAAAAAAAAAAAAAAAAAAAAAAAAAAAAAAAAAAAAAAAAAAAAAAAAAAAAAAAAAAAAAAAAAAAAAAAAAAAAAAAAAAAAAAAAAAAAAAAAAAAAAAPZYQCzyisuZuIlrFM311ZfmdyHe8tVa89O61g41hN5K3kaG5J8ewnp8k6B+9ai7dsDlsQoq4g85el+KiZE9B7tkr+o=</c2pa:manifest></metadata>
<path fill="#CC1417" fill-rule="evenodd" d="M171.5 37.0L190.0 36.5L190.5 61.0L193.0 62.5L199.0 62.5L212.0 66.5L223.0 72.5L224.5 75.0L219.5 82.0L218.0 83.5L205.0 76.5L198.0 75.5L197.0 74.5L191.0 74.5L190.0 73.5L189.0 74.5L185.0 74.5L184.0 73.5L183.0 74.5L180.0 74.5L178.5 73.0L178.0 48.5L171.0 48.5L170.0 49.5L161.0 50.5L149.0 54.5L137.0 60.5L123.0 71.5L121.0 71.5L114.5 65.0L114.5 63.0L123.0 55.5L132.0 49.5L144.0 43.5L164.0 37.5ZM202.5 39.0L208.0 38.5L209.0 39.5L212.0 39.5L226.0 44.5L240.0 51.5L256.0 63.5L261.5 69.0L261.5 71.0L217.0 114.5L208.5 107.0L244.5 70.0L235.0 62.5L224.0 56.5L207.0 50.5L203.0 50.5ZM164.5 64.0L166.0 63.5L167.5 65.0L168.5 75.0L152.0 81.5L139.0 90.5L131.5 98.0L125.5 106.0L119.5 119.0L117.5 131.0L116.5 132.0L116.5 147.0L117.5 148.0L117.5 152.0L121.5 166.0L126.5 176.0L130.5 181.0L123.0 187.5L119.5 187.0L113.5 177.0L113.5 175.0L111.5 173.0L106.0 155.5L93.0 155.5L92.5 160.0L93.5 161.0L93.5 164.0L95.5 167.0L96.5 173.0L102.5 186.0L106.5 191.0L107.5 194.0L118.0 206.5L121.0 206.5L136.0 190.5L138.0 190.5L144.0 195.5L156.0 202.5L173.0 207.5L194.0 207.5L195.0 206.5L199.0 206.5L206.0 204.5L218.0 198.5L221.5 203.0L223.5 209.0L213.0 214.5L204.0 217.5L201.0 217.5L199.5 219.0L200.0 232.5L205.0 232.5L209.0 230.5L212.0 230.5L221.0 227.5L231.0 222.5L245.5 212.0L244.5 210.0L208.5 175.0L208.5 173.0L215.0 166.5L217.0 166.5L261.5 210.0L261.5 212.0L255.0 219.5L241.0 230.5L234.0 233.5L230.0 236.5L228.0 236.5L214.0 242.5L210.0 242.5L204.0 244.5L189.0 245.5L187.5 243.0L187.5 240.0L188.5 239.0L188.5 235.0L187.5 234.0L188.5 233.0L187.5 232.0L187.5 228.0L188.5 227.0L187.5 226.0L187.5 222.0L188.5 221.0L187.0 219.5L173.0 219.5L172.0 218.5L163.0 217.5L149.0 212.5L140.0 206.5L137.0 206.5L122.0 222.5L119.0 223.5L108.5 214.0L93.5 194.0L86.5 180.0L82.5 168.0L82.5 165.0L80.5 160.0L79.5 144.0L82.0 142.5L85.0 143.5L88.0 142.5L89.0 143.5L90.0 142.5L92.0 143.5L103.0 143.5L104.5 142.0L104.5 134.0L105.5 133.0L106.5 121.0L111.5 107.0L116.5 99.0L106.0 89.5L103.5 92.0L97.5 104.0L93.5 116.0L92.5 129.0L91.5 131.0L86.0 131.5L85.0 130.5L80.5 130.0L81.5 116.0L87.5 97.0L94.5 84.0L102.5 73.0L104.0 71.5L106.0 71.5L124.0 88.5L130.0 82.5L142.0 73.5L156.0 66.5ZM176.5 87.0L189.0 86.5L190.0 87.5L202.0 89.5L206.5 93.0L200.0 101.5L194.0 99.5L189.0 99.5L188.0 98.5L177.0 98.5L176.0 99.5L169.0 100.5L158.0 106.5L151.5 113.0L144.5 124.0L142.5 131.0L142.5 136.0L141.5 137.0L142.5 150.0L144.5 157.0L146.5 159.0L146.5 161.0L149.5 166.0L162.0 177.5L172.0 181.5L177.0 181.5L178.0 182.5L191.0 182.5L199.0 179.5L206.5 187.0L205.5 189.0L202.0 191.5L192.0 194.5L177.0 194.5L176.0 193.5L172.0 193.5L162.0 190.5L151.0 184.5L138.5 171.0L133.5 161.0L131.5 151.0L130.5 150.0L130.5 143.0L129.5 142.0L130.5 130.0L133.5 120.0L139.5 109.0L149.0 98.5L156.0 93.5L164.0 89.5L167.0 89.5L171.0 87.5ZM137.5 222.0L140.0 222.5L148.0 227.5L159.0 231.5L176.0 233.5L176.5 244.0L164.0 244.5L163.0 243.5L154.0 242.5L141.0 236.5L139.0 236.5L131.5 231.0ZM91.5 271.0L102.0 270.5L105.5 273.0L105.5 279.0L104.0 280.5L101.0 278.5L93.0 278.5L91.0 279.5L88.5 283.0L87.5 289.0L92.0 295.5L94.0 296.5L105.0 295.5L110.5 283.0L113.5 273.0L116.0 270.5L120.0 270.5L122.5 273.0L122.5 275.0L124.5 278.0L132.5 302.0L131.0 303.5L126.0 303.5L122.0 295.5L114.0 295.5L110.0 303.5L90.0 303.5L85.0 300.5L80.5 293.0L80.5 282.0L83.5 276.0L86.0 273.5ZM130.5 271.0L152.0 270.5L153.5 272.0L153.5 277.0L152.0 278.5L144.5 279.0L144.0 303.5L139.0 303.5L137.5 302.0L137.5 279.0L131.0 278.5L129.5 277.0ZM161.5 271.0L167.0 270.5L168.5 272.0L178.0 297.5L178.5 272.0L180.0 270.5L185.0 270.5L186.5 272.0L186.5 295.0L196.0 295.5L197.5 297.0L197.5 302.0L196.0 303.5L173.0 303.5L170.5 301.0L170.5 299.0L168.0 295.5L161.0 295.5L158.5 299.0L158.5 301.0L156.0 303.5L151.0 303.5L149.5 301.0ZM194.5 271.0L201.0 270.5L207.0 281.5L211.5 273.0L214.0 270.5L220.0 270.5L221.0 273.5L226.0 270.5L261.0 270.5L261.5 278.0L253.5 279.0L253.5 302.0L252.0 303.5L247.0 303.5L245.5 302.0L245.5 279.0L233.0 278.5L232.0 277.5L229.0 277.5L227.0 278.5L226.5 280.0L230.0 283.5L232.0 283.5L235.0 285.5L239.5 291.0L239.5 297.0L235.0 302.5L232.0 303.5L223.0 303.5L218.5 301.0L219.0 292.5L227.0 296.5L231.0 295.5L231.5 293.0L223.0 288.5L219.5 285.0L218.0 278.5L211.5 290.0L211.5 302.0L209.0 303.5L205.0 303.5L203.5 302.0L203.5 292.0L202.5 289.0L193.5 273.0ZM118.0 284.5L117.0 287.5L118.5 287.0ZM164.0 285.5L163.5 287.0L165.0 287.5ZM159.5 319.0L180.0 318.5L181.5 320.0L181.5 324.0L179.5 326.0L173.5 339.0L171.0 350.5L164.0 350.5L163.5 345.0L167.5 334.0L171.5 327.0L170.0 325.5L160.0 325.5Z"></path>
</svg>